<?xml version="1.0" encoding="UTF-8"?>
<svg version="1.1" xmlns="http://www.w3.org/2000/svg" width="616" height="405">
<path d="M0 0 C1.7146514 -0.00543121 3.42929813 -0.01255943 5.14393616 -0.02124023 C9.76803597 -0.0393593 14.3917758 -0.03245325 19.0158813 -0.01972389 C23.87579554 -0.00953502 28.73568075 -0.01900597 33.59559631 -0.02526855 C41.75519289 -0.03252861 49.91464426 -0.02300123 58.07421875 -0.00390625 C67.47988945 0.017852 76.8852131 0.01081208 86.29087538 -0.01121187 C94.39489279 -0.02942156 102.49880633 -0.03189686 110.60283762 -0.0214572 C115.43046756 -0.01525183 120.25793492 -0.0143044 125.08555412 -0.02760315 C129.6272698 -0.03924219 134.16854248 -0.03099044 138.7102108 -0.00802612 C140.36729958 -0.0027814 142.02442629 -0.00417922 143.68149948 -0.01307678 C161.536555 -0.10003665 175.9056577 4.14655569 189.03930664 16.59960938 C202.68059962 31.62917553 204.29590034 50.13400303 204.22119141 69.48022461 C204.2282672 71.43215074 204.23701911 73.38407139 204.24729919 75.33598328 C204.26962798 80.59283652 204.26689065 85.8493863 204.25797772 91.10626864 C204.25282989 95.52116358 204.26019172 99.93600336 204.2674498 104.3508926 C204.28439974 114.78565481 204.28093638 125.22027065 204.26416016 135.6550293 C204.24728013 146.35343029 204.263028 157.05142198 204.29538304 167.74977821 C204.32225151 176.99036052 204.32930769 186.23081679 204.32086796 195.47143418 C204.31598423 200.96564662 204.31790195 206.45961375 204.33865547 211.95379448 C204.44811521 244.20876877 203.9330975 274.00641417 186.62524414 302.39257812 C186.27397461 302.98554688 185.92270508 303.57851563 185.56079102 304.18945312 C184.65962173 305.6681203 183.67964107 307.09817572 182.68774414 308.51757812 C182.02774414 308.51757812 181.36774414 308.51757812 180.68774414 308.51757812 C180.62586914 309.07445312 180.56399414 309.63132812 180.50024414 310.20507812 C179.35102906 313.47592105 177.16234784 315.10995088 174.68774414 317.51757812 C173.56819336 318.72414063 173.56819336 318.72414063 172.42602539 319.95507812 C145.23874613 348.67465171 103.72932718 365.47415387 65.68774414 373.51757812 C64.40843018 373.78828125 64.40843018 373.78828125 63.10327148 374.06445312 C60.30094345 374.64747129 57.49559937 375.21181862 54.68774414 375.76757812 C53.81480713 375.94321289 52.94187012 376.11884766 52.04248047 376.29980469 C46.82753057 377.29141141 41.99565739 377.68959383 36.68774414 377.51757812 C36.68774414 376.85757812 36.68774414 376.19757813 36.68774414 375.51757812 C37.35418945 375.17726563 38.02063477 374.83695312 38.70727539 374.48632812 C45.01203108 371.17082024 50.71226756 367.47560894 56.37524414 363.15429688 C58.68774414 361.51757812 58.68774414 361.51757812 61.68774414 360.51757812 C62.8965651 358.51741346 62.8965651 358.51741346 63.68774414 356.51757812 C64.34774414 356.51757812 65.00774414 356.51757812 65.68774414 356.51757812 C66.34774414 355.19757813 67.00774414 353.87757813 67.68774414 352.51757812 C68.34774414 352.51757812 69.00774414 352.51757812 69.68774414 352.51757812 C69.93137695 351.97101563 70.17500977 351.42445313 70.42602539 350.86132812 C71.97062655 347.99209997 73.86951272 345.58601905 75.87524414 343.01757812 C83.56048739 332.9068009 88.80777352 322.50978094 92.95967102 310.55996704 C93.65094856 308.62079699 94.39270651 306.70851113 95.14282227 304.79150391 C100.24409187 291.18080072 101.49160067 276.77895313 102.43774414 262.39257812 C102.56281987 260.64379207 102.6891171 258.89509293 102.81665039 257.14648438 C103.12101927 252.93771145 103.40913761 248.72813159 103.68774414 244.51757812 C103.08919868 244.52218709 102.49065323 244.52679605 101.87397003 244.53154469 C87.23931889 244.64247206 72.60469274 244.72495078 57.96971893 244.77663898 C50.89201153 244.80230624 43.81458654 244.83723353 36.73706055 244.89477539 C30.56073213 244.94496593 24.38460845 244.97695231 18.20808172 244.9880206 C14.94434449 244.99448003 11.68132145 245.01213006 8.41773987 245.04622841 C-9.31522488 245.22400009 -25.86508325 245.23551074 -40.31225586 233.51757812 C-40.9915918 232.99808594 -41.67092773 232.47859375 -42.37084961 231.94335938 C-47.17294273 228.10748218 -47.17294273 228.10748218 -47.81225586 225.40039062 C-47.97725586 224.7790625 -48.14225586 224.15773437 -48.31225586 223.51757812 C-49.30225586 223.18757812 -50.29225586 222.85757813 -51.31225586 222.51757812 C-52.81225586 220.11132813 -52.81225586 220.11132813 -54.31225586 217.01757812 C-55.05475586 215.51710937 -55.05475586 215.51710937 -55.81225586 213.98632812 C-56.55475586 212.26929688 -56.55475586 212.26929688 -57.31225586 210.51757812 C-57.70230175 209.64355787 -57.70230175 209.64355787 -58.10022736 208.75188065 C-60.992544 201.37612644 -60.7497541 193.89925262 -60.73217773 186.10644531 C-60.73952841 184.55972179 -60.74811753 183.01300374 -60.75784302 181.46629333 C-60.77996595 177.28628561 -60.78299425 173.10647557 -60.7810955 168.92641735 C-60.78097534 165.42534605 -60.78955825 161.92431593 -60.79787302 158.42325616 C-60.81707499 150.15567767 -60.82000308 141.88820014 -60.81323242 133.62060547 C-60.80659824 125.11982493 -60.82943817 116.61947901 -60.86654615 108.11878657 C-60.89734005 100.79614428 -60.9085926 93.47364108 -60.90470934 86.15093541 C-60.90265134 81.78820133 -60.90797267 77.42580542 -60.93260193 73.06313324 C-60.95502675 68.95557893 -60.95286236 64.84872591 -60.93267441 60.74116707 C-60.92929163 59.2437109 -60.93423397 57.74620606 -60.94865799 56.24881554 C-61.05774947 44.07227461 -58.45027569 33.6062814 -51.74975586 23.33007812 C-51.1915918 22.44964844 -50.63342773 21.56921875 -50.05834961 20.66210938 C-48.2234122 18.40846141 -46.85707585 17.78218192 -44.31225586 16.51757812 C-44.02092773 15.89882813 -43.72959961 15.28007812 -43.42944336 14.64257812 C-41.78022729 11.50560769 -39.4334647 10.35697732 -36.43725586 8.51757812 C-35.38795898 7.85757812 -34.33866211 7.19757812 -33.25756836 6.51757812 C-22.43715658 0.69817636 -11.99765624 -0.06433442 0 0 Z " fill="#BD2A4A" transform="translate(404.312255859375,11.482421875)"/>
<path d="M0 0 C0.71224499 -0.00438225 1.42448999 -0.00876451 2.15831816 -0.01327956 C4.54545906 -0.02663583 6.93256306 -0.03283941 9.31973267 -0.03897095 C11.0315772 -0.04687477 12.74342009 -0.05514389 14.45526123 -0.06375122 C20.08015354 -0.08995121 25.7050532 -0.10528245 31.32998657 -0.11953735 C33.26997507 -0.12489892 35.20996352 -0.13027644 37.14995193 -0.13566971 C45.22574659 -0.15730045 53.30153928 -0.1760332 61.37735558 -0.1872921 C72.92807298 -0.20350379 84.47845253 -0.23661169 96.0290426 -0.29369295 C104.16175879 -0.33250337 112.29438506 -0.35193822 120.42719138 -0.35721266 C125.27798366 -0.36085253 130.12841544 -0.37272688 134.9791069 -0.4053154 C139.55109021 -0.43558988 144.12249859 -0.44163948 148.694561 -0.42993164 C150.36254022 -0.42971248 152.03054761 -0.43788547 153.69843292 -0.45558548 C167.39280127 -0.59286956 179.72938654 1.56950612 190.93154907 10.15390015 C191.65729126 10.7056189 192.38303345 11.25733765 193.13076782 11.82577515 C205.30785393 21.83207341 211.05411337 34.72901396 212.93154907 50.15390015 C213.02235071 52.91313629 213.07104143 55.64642582 213.06526184 58.40486145 C213.0675274 59.20809674 213.06979295 60.01133203 213.07212716 60.83890778 C213.07843008 63.51610432 213.07764017 66.19324976 213.07681274 68.87045288 C213.07980669 70.79623988 213.08320976 72.72202628 213.08699036 74.64781189 C213.09581404 79.8714488 213.09816788 85.09506931 213.09880614 90.31871295 C213.09951797 93.5881643 213.10165488 96.85761152 213.10430336 100.12706184 C213.11355383 111.55064278 213.11763892 122.97421207 213.11685181 134.39779663 C213.11625221 145.0159656 213.12678154 155.63408357 213.14259547 166.25223964 C213.15571505 175.38971266 213.1610338 184.5271691 213.1603964 193.66465145 C213.16014256 199.11224699 213.16292998 204.55979726 213.17357445 210.00738335 C213.18332913 215.13986545 213.18328461 220.27225972 213.17605782 225.4047451 C213.17502083 227.27666097 213.17732144 229.14858251 213.18341827 231.02048874 C213.28634334 264.8439107 206.04428883 294.38041614 181.99014282 319.0953064 C180.9731951 320.11741465 179.95370543 321.13700078 178.93154907 322.15390015 C178.44960083 322.63842651 177.96765259 323.12295288 177.47109985 323.62216187 C170.19340035 330.8604292 162.27954963 336.65572897 153.59609985 342.10507202 C152.20447108 342.98193286 150.8294821 343.88512942 149.45889282 344.79452515 C131.0992202 356.58098165 108.84954501 364.21178899 87.83682251 369.65145874 C85.41586789 370.2898909 83.02036764 371.0081248 80.61904907 371.71640015 C75.21489877 373.1810764 69.73552952 374.26203204 64.24404907 375.34140015 C63.35225952 375.5206604 62.46046997 375.69992065 61.54165649 375.88461304 C56.23805362 376.89555215 51.32980046 377.33614612 45.93154907 377.15390015 C45.93154907 376.49390015 45.93154907 375.83390015 45.93154907 375.15390015 C46.59799438 374.81358765 47.2644397 374.47327515 47.95108032 374.12265015 C56.21982268 369.77433249 64.45346907 364.92464719 70.99404907 358.15390015 C71.63342407 357.49390015 72.27279907 356.83390015 72.93154907 356.15390015 C73.59154907 356.15390015 74.25154907 356.15390015 74.93154907 356.15390015 C75.17389282 355.58929077 75.41623657 355.0246814 75.66592407 354.44296265 C77.17530217 351.71303807 79.0246254 349.78119799 81.18154907 347.52890015 C85.58081862 342.70231302 88.82702993 337.87714571 91.93154907 332.15390015 C92.66181208 330.85951322 93.39229813 329.56525211 94.12295532 328.27108765 C99.20111615 319.13861422 103.14858968 310.26531926 105.93154907 300.15390015 C106.20756958 299.18009399 106.20756958 299.18009399 106.48916626 298.18661499 C110.86127192 282.39591228 111.96226168 265.77451556 111.9390564 249.438797 C111.93797253 248.44891501 111.93688866 247.45903303 111.93577194 246.43915462 C111.9343784 245.68502065 111.93298485 244.93088667 111.93154907 244.15390015 C111.04146149 244.16081359 111.04146149 244.16081359 110.13339233 244.16786671 C95.62392008 244.27880008 81.11447304 244.36127566 66.60467529 244.41296101 C59.58750068 244.43862692 52.57061098 244.47355155 45.55361938 244.53109741 C38.77140641 244.58669085 31.98948844 244.61539116 25.20706177 244.62828636 C22.63011034 244.63746639 20.05317354 244.65539156 17.47634888 244.68255043 C-18.51321388 245.04649968 -18.51321388 245.04649968 -31.06845093 233.15390015 C-31.06845093 232.49390015 -31.06845093 231.83390015 -31.06845093 231.15390015 C-31.93470093 230.78265015 -31.93470093 230.78265015 -32.81845093 230.40390015 C-35.39785072 228.97090026 -37.12966685 227.36965338 -39.06845093 225.15390015 C-39.06845093 224.49390015 -39.06845093 223.83390015 -39.06845093 223.15390015 C-39.72845093 223.15390015 -40.38845093 223.15390015 -41.06845093 223.15390015 C-50.00824701 211.83867253 -51.67139203 198.53733612 -51.60189819 184.59579468 C-51.60897492 183.08128019 -51.61772721 181.56677276 -51.62800598 180.05227661 C-51.65031517 175.97767096 -51.6476038 171.90345712 -51.63868451 167.82881403 C-51.63353682 164.40973774 -51.64089769 160.99073267 -51.64815658 157.57166374 C-51.66509743 149.49663495 -51.66164928 141.42179539 -51.64486694 133.34677124 C-51.62795534 125.05496418 -51.64378003 116.76368398 -51.67608982 108.47193444 C-51.70290121 101.31646846 -51.71003063 94.16116532 -51.70157474 87.00565422 C-51.69667853 82.74800597 -51.69867949 78.49067424 -51.71936226 74.23306656 C-51.73790205 70.22555722 -51.73154144 66.21879723 -51.70716286 62.2113266 C-51.70221208 60.75341782 -51.70549262 59.29545009 -51.71831131 57.83758926 C-51.83464365 43.45248688 -48.5712129 29.44241605 -39.06845093 18.15390015 C-37.74241558 17.47283299 -36.41018557 16.80349261 -35.06845093 16.15390015 C-34.73845093 15.16390015 -34.40845093 14.17390015 -34.06845093 13.15390015 C-24.80087591 4.79724062 -12.37923273 0.0540596 0 0 Z " fill="#BC2949" transform="translate(63.068450927734375,11.846099853515625)"/>
<path d="M0 0 C5.9641596 5.9641596 4.26080106 18.80173143 4.27105713 26.75622559 C4.26716959 28.5610356 4.26307332 30.36584518 4.25878906 32.1706543 C4.26150318 34.09703198 4.26506646 36.02340862 4.26940918 37.94978333 C4.27848847 43.15667787 4.27500656 48.36349271 4.26865101 53.57038856 C4.26356421 59.04015797 4.26829022 64.50992085 4.27142334 69.97969055 C4.27505674 79.1683575 4.27028194 88.35699225 4.26074219 97.5456543 C4.24987507 108.13437384 4.25337308 118.72301625 4.264395 129.3117339 C4.27350514 138.43230681 4.27473451 147.55285665 4.26951766 156.67343265 C4.26641629 162.10754934 4.26593744 167.54162994 4.27259064 172.97574425 C4.27841732 178.09187188 4.27427099 183.20790132 4.26280212 188.32401848 C4.26018305 190.18948454 4.26087278 192.05495902 4.26532745 193.9204216 C4.29880839 209.38043236 3.69167391 225.12739369 -1 240 C-1.99 240.99 -1.99 240.99 -3 242 C-2.67 238.04 -2.34 234.08 -2 230 C-1.34 230 -0.68 230 0 230 C-0.01160156 229.10796875 -0.02320313 228.2159375 -0.03515625 227.296875 C-0.04869141 225.54117188 -0.04869141 225.54117188 -0.0625 223.75 C-0.07410156 222.58984375 -0.08570313 221.4296875 -0.09765625 220.234375 C0 217 0 217 0.49816704 215.30816936 C1.2527696 211.83739196 1.13714524 208.36965549 1.12698364 204.83491516 C1.12854363 204.00480287 1.13010362 203.17469058 1.13171089 202.31942338 C1.13570422 199.53365034 1.1325376 196.74793166 1.12939453 193.9621582 C1.13074936 191.96634387 1.13252976 189.97052979 1.13470459 187.97471619 C1.13927066 182.54889574 1.13749235 177.12309428 1.1343255 171.69727349 C1.1317959 166.01865605 1.13414129 160.34004024 1.13571167 154.66142273 C1.13753235 145.11908679 1.13513049 135.57675859 1.13037109 126.03442383 C1.12493646 115.0111826 1.12668573 103.98795989 1.1321975 92.96471912 C1.13674082 83.49875712 1.13737297 74.0328007 1.13475883 64.56683797 C1.13320177 58.9143148 1.1329865 53.26180033 1.13629532 47.60927773 C1.13919145 42.28973974 1.13716634 36.97022551 1.13140106 31.65069008 C1.13008247 29.70166056 1.13045224 27.75262902 1.13266373 25.80360031 C1.13541091 23.13570786 1.13195061 20.46789075 1.12698364 17.80000305 C1.12921436 17.03519365 1.13144509 16.27038425 1.13374341 15.48239881 C1.11497359 10.25638886 0.6461303 5.1867583 0 0 Z " fill="#E8C3CA" transform="translate(272,49)"/>
<path d="M0 0 C0.33 0 0.66 0 1 0 C1 4.29 1 8.58 1 13 C1.33 13 1.66 13 2 13 C2.00331015 13.76476371 2.00662029 14.52952742 2.01003075 15.31746578 C2.09133887 33.94717702 2.18345685 52.57680631 2.28752708 71.20640469 C2.33759595 80.21562957 2.38403945 89.22484561 2.421875 98.23413086 C2.45487126 106.08888962 2.49474443 113.94357862 2.54279006 121.79826027 C2.56797929 125.95518396 2.58978273 130.11206183 2.60334396 134.26904106 C2.61623335 138.18671386 2.63836094 142.10422889 2.66738319 146.02181435 C2.67640548 147.45480512 2.68213661 148.88782126 2.68421364 150.32083893 C2.33388535 162.81096736 2.33388535 162.81096736 6.5078125 174.26953125 C7.04148437 174.77871094 7.57515625 175.28789062 8.125 175.8125 C9.7578125 177.39453125 9.7578125 177.39453125 11 179 C11 180.32 11 181.64 11 183 C10.34 183 9.68 183 9 183 C0.01110454 171.62262661 -1.60109463 158.25338591 -1.4699707 144.26733398 C-1.47048082 142.73497875 -1.47274491 141.20262327 -1.47660828 139.67027283 C-1.48197818 135.55089077 -1.46275515 131.43196693 -1.43850732 127.31266665 C-1.41706275 122.98776161 -1.41780035 118.66285564 -1.41581726 114.33790588 C-1.40939373 107.08806566 -1.3882294 99.83839566 -1.35668945 92.58862305 C-1.31626281 83.2839344 -1.29897685 73.97935596 -1.28938007 64.67459011 C-1.28108289 56.66000034 -1.26385667 48.64543383 -1.24434257 40.63086438 C-1.24029547 38.91337822 -1.23655562 37.1958913 -1.2331202 35.47840381 C-1.22333465 30.58998075 -1.20884076 25.70162358 -1.1862812 20.81324196 C-1.18016318 19.332977 -1.17571055 17.85270409 -1.17303848 16.37242889 C-1.16905189 14.35357236 -1.15828864 12.33473257 -1.14717102 10.31590271 C-1.14289754 9.18607688 -1.13862406 8.05625105 -1.13422108 6.89218807 C-1.01928704 4.415596 -0.72133363 2.3592521 0 0 Z " fill="#DA788D" transform="translate(13,52)"/>
<path d="M0 0 C0.99 0.33 1.98 0.66 3 1 C3 2.65 3 4.3 3 6 C2.67 6 2.34 6 2 6 C1.67 58.14 1.34 110.28 1 164 C-1.37437489 160.43843766 -1.24924007 158.93114861 -1.24723816 154.70582581 C-1.25143265 153.38646027 -1.25562714 152.06709473 -1.25994873 150.70774841 C-1.25446508 149.24209521 -1.24878209 147.77644275 -1.24291992 146.31079102 C-1.24399266 144.7700594 -1.24593121 143.22932818 -1.24867249 141.68859863 C-1.25352576 137.50058501 -1.24585878 133.31267771 -1.23571944 129.12467694 C-1.22694475 124.74497931 -1.22869629 120.36528507 -1.2290802 115.98558044 C-1.22814316 108.62895933 -1.21945452 101.27237942 -1.20581055 93.91577148 C-1.19009046 85.4082843 -1.18481223 76.90084227 -1.1855461 68.3933416 C-1.1861564 60.21397751 -1.18105035 52.03462815 -1.17275429 43.85526848 C-1.16922223 40.37250593 -1.16739115 36.88974858 -1.16686058 33.40698433 C-1.16585624 29.30549847 -1.15975215 25.20405055 -1.14969444 21.10257721 C-1.14677278 19.59651611 -1.1455434 18.09045065 -1.14612198 16.58438683 C-1.14661257 14.52993679 -1.14095795 12.47559306 -1.13371277 10.42115784 C-1.13203692 9.27096948 -1.13036108 8.12078112 -1.12863445 6.93573856 C-1.01919012 4.4379634 -0.73104348 2.37713742 0 0 Z " fill="#A9324D" transform="translate(346,51)"/>
<path d="M0 0 C1.73573785 0.00113048 3.47147761 0.0004907 5.20721436 -0.00177002 C9.8842114 -0.00291026 14.56079195 0.02048631 19.23769283 0.04852581 C24.13835942 0.07365544 29.03903722 0.07589053 33.9397583 0.08062744 C43.20426706 0.0930234 52.46858536 0.12579898 61.73301053 0.1660254 C72.28687001 0.21084869 82.84073893 0.23275663 93.39467001 0.25280714 C115.09036778 0.29453482 136.78589451 0.36482071 158.48144531 0.45410156 C158.48144531 0.78410156 158.48144531 1.11410156 158.48144531 1.45410156 C99.41144531 1.78410156 40.34144531 2.11410156 -20.51855469 2.45410156 C-20.51855469 3.44410156 -20.51855469 4.43410156 -20.51855469 5.45410156 C-22.82855469 5.45410156 -25.13855469 5.45410156 -27.51855469 5.45410156 C-27.82792969 6.38222656 -27.82792969 6.38222656 -28.14355469 7.32910156 C-30.06104712 10.29249895 -32.219732 10.47147353 -35.51855469 11.45410156 C-35.84855469 12.11410156 -36.17855469 12.77410156 -36.51855469 13.45410156 C-38.16412035 14.48845712 -39.83561549 15.48173669 -41.51855469 16.45410156 C-43.52435798 17.77868864 -45.52571331 19.11009226 -47.51855469 20.45410156 C-47.51855469 19.46410156 -47.51855469 18.47410156 -47.51855469 17.45410156 C-46.52855469 17.12410156 -45.53855469 16.79410156 -44.51855469 16.45410156 C-44.24785156 15.85597656 -43.97714844 15.25785156 -43.69824219 14.64160156 C-41.99448851 11.48232321 -39.68289776 10.31998124 -36.64355469 8.45410156 C-35.59425781 7.79410156 -34.54496094 7.13410156 -33.46386719 6.45410156 C-22.5585908 0.59307588 -12.0857464 -0.1111702 0 0 Z " fill="#F0AAB8" transform="translate(404.5185546875,11.5458984375)"/>
<path d="M0 0 C0.66 0.33 1.32 0.66 2 1 C1.195625 1.680625 0.39125 2.36125 -0.4375 3.0625 C-3.42288711 6.48477302 -3.73781251 8.5428126 -4 13 C-1.69 13.66 0.62 14.32 3 15 C3 14.34 3 13.68 3 13 C10.65541695 11.0921453 18.1177798 9.51599184 26 9 C23.78989285 11.21010715 22.68619267 11.54824586 19.73046875 12.3671875 C18.85148926 12.61130371 17.97250977 12.85541992 17.06689453 13.10693359 C16.11669434 13.36039551 15.16649414 13.61385742 14.1875 13.875 C13.21151855 14.13748535 12.23553711 14.3999707 11.22998047 14.67041016 C4.4037766 16.46389293 -2.4469092 18.0291705 -9.375 19.375 C-10.22296143 19.54241699 -11.07092285 19.70983398 -11.94458008 19.88232422 C-17.04726406 20.82559224 -21.81167224 21.15505347 -27 21 C-27 20.34 -27 19.68 -27 19 C-26.33355469 18.6596875 -25.66710937 18.319375 -24.98046875 17.96875 C-15.84294373 13.16356202 -6.98355325 7.7059898 0 0 Z " fill="#D1788C" transform="translate(136,368)"/>
<path d="M0 0 C0.61328125 1.88671875 0.61328125 1.88671875 1 4 C-1 6 -1 6 -3 8 C-3.70491267 10.32206525 -4.37212429 12.65593068 -5 15 C-5.96873032 16.35622245 -6.96434215 17.69417053 -8 19 C-9.17312802 22.45470931 -9.12578966 25.76823059 -9.12698364 29.39424133 C-9.12980347 30.71064606 -9.13262329 32.02705078 -9.13552856 33.38334656 C-9.13358426 34.84060683 -9.1315361 36.29786696 -9.12939453 37.75512695 C-9.13074971 39.29113812 -9.1325303 40.82714896 -9.13470459 42.36315918 C-9.13926617 46.53475498 -9.13749428 50.70632606 -9.1343255 54.8779223 C-9.13179397 59.2455351 -9.13414179 63.61314578 -9.13571167 67.98075867 C-9.13753162 75.31880066 -9.13513223 82.65683259 -9.13037109 89.99487305 C-9.12493489 98.47107702 -9.12668717 106.94725692 -9.1321975 115.4234603 C-9.13674085 122.7042716 -9.137373 129.98507566 -9.13475883 137.26588792 C-9.13320201 141.61272621 -9.13298589 145.9595532 -9.13629532 150.30639076 C-9.13919155 154.39640296 -9.13716616 158.48638426 -9.13140106 162.57639313 C-9.1300826 164.07474656 -9.13045202 165.57310262 -9.13266373 167.071455 C-9.1354114 169.12260729 -9.1319501 171.17366163 -9.12698364 173.22480774 C-9.12660662 174.3709319 -9.12622959 175.51705606 -9.12584114 176.69791126 C-8.99278418 180.1893442 -8.55148986 183.5518956 -8 187 C-11.58453724 183.41546276 -11.13025488 179.45833673 -11.15390015 174.57020569 C-11.1582824 173.92667552 -11.16266465 173.28314535 -11.1671797 172.62011427 C-11.18052462 170.46557118 -11.18673696 168.31106896 -11.19287109 166.15649414 C-11.20077579 164.61051246 -11.20904497 163.06453262 -11.21765137 161.51855469 C-11.24384048 156.44077305 -11.25918117 151.36298332 -11.2734375 146.28515625 C-11.27879945 144.53335503 -11.28417697 142.78155386 -11.28956985 141.02975273 C-11.3111987 133.73716095 -11.32993133 126.44457134 -11.34119225 119.1519556 C-11.35740365 108.72378247 -11.39051285 98.29598355 -11.44759309 87.86795145 C-11.48640956 80.52420404 -11.50583904 73.18055621 -11.51111281 65.83670896 C-11.51475179 61.45709607 -11.52661614 57.07788258 -11.55921555 52.69838142 C-11.58950113 48.57042321 -11.59553598 44.44310175 -11.58383179 40.31505585 C-11.58361272 38.80952252 -11.59177804 37.30395788 -11.60948563 35.79852867 C-11.76297519 21.98428266 -8.33732412 11.08778156 0 0 Z " fill="#FEC0D0" transform="translate(355,32)"/>
<path d="M0 0 C0.71577282 -0.00382555 1.43154564 -0.00765109 2.16900855 -0.01159257 C4.56789129 -0.02191263 6.96653422 -0.01793229 9.36543274 -0.01396179 C11.08539044 -0.01830897 12.8053462 -0.02349213 14.52529907 -0.02944946 C19.19909294 -0.04285394 23.87280601 -0.04341624 28.54661536 -0.04088616 C32.45042504 -0.03981687 36.35421834 -0.04469904 40.25802451 -0.04949158 C49.47222511 -0.06059298 58.68638494 -0.06102141 67.90058899 -0.05497742 C77.39699772 -0.04894383 86.89325805 -0.06123155 96.38964146 -0.08254749 C104.54776664 -0.1001843 112.70584469 -0.10616134 120.86398822 -0.10290974 C125.73407034 -0.10109917 130.60404674 -0.10370998 135.47411156 -0.11762428 C140.05830354 -0.13023089 144.6422652 -0.12823175 149.22645378 -0.11521339 C150.90457488 -0.11285377 152.58271232 -0.1155602 154.26081467 -0.12383652 C162.62966196 -0.16211855 170.06801423 -0.10999652 177.89790344 3.26069641 C173.81523658 4.62158537 171.13862243 3.94468334 166.89790344 3.26069641 C166.56790344 2.93069641 166.23790344 2.60069641 165.89790344 2.26069641 C163.61966599 2.16360571 161.33834921 2.13883037 159.05804443 2.14044189 C158.33440124 2.13958747 157.61075805 2.13873304 156.86518627 2.13785273 C154.42220998 2.13619579 151.97930122 2.14172276 149.53633118 2.14717102 C147.7923635 2.14745287 146.04839571 2.1472952 144.3044281 2.14672852 C139.5546285 2.14644046 134.80485391 2.15233844 130.05506015 2.15930247 C125.09691922 2.16553472 120.13877778 2.16613971 115.18063354 2.16732788 C105.78480516 2.17044158 96.38898835 2.17865548 86.99316508 2.18867737 C76.29927195 2.19983732 65.60537828 2.20534866 54.91148078 2.21037281 C32.90694853 2.22083807 10.90242672 2.23843825 -11.10209656 2.26069641 C-7.42968501 -0.0608324 -4.28294415 0.00685557 0 0 Z " fill="#EEA7B6" transform="translate(63.10209655761719,11.739303588867188)"/>
<path d="M0 0 C0.66 0.33 1.32 0.66 2 1 C1.09674384 2.32176485 0.17682097 3.63215066 -0.75 4.9375 C-1.26046875 5.66839844 -1.7709375 6.39929688 -2.296875 7.15234375 C-4.19177915 9.20805399 -5.27425729 9.62669176 -8 10 C-8.0928125 10.928125 -8.0928125 10.928125 -8.1875 11.875 C-9 14 -9 14 -11.5625 15.25 C-12.366875 15.4975 -13.17125 15.745 -14 16 C-14 16.66 -14 17.32 -14 18 C-7.73 18 -1.46 18 5 18 C0.37431656 21.08378896 -4.78402342 21.56585701 -10.1875 22.625 C-11.85522461 22.96917969 -11.85522461 22.96917969 -13.55664062 23.3203125 C-19.48323432 24.49931515 -24.95822334 25.28032663 -31 25 C-31 24.34 -31 23.68 -31 23 C-30.33355469 22.6596875 -29.66710937 22.319375 -28.98046875 21.96875 C-22.67571306 18.65324211 -16.97547658 14.95803082 -11.3125 10.63671875 C-9 9 -9 9 -6 8 C-4.79117904 5.99983534 -4.79117904 5.99983534 -4 4 C-3.34 4 -2.68 4 -2 4 C-1.34 2.68 -0.68 1.36 0 0 Z " fill="#C6687D" transform="translate(472,364)"/>
<path d="M0 0 C0.33 0 0.66 0 1 0 C1.32737284 9.40287557 0.72513427 18.26628184 -3 27 C-3.66 27 -4.32 27 -5 27 C-5.0928125 27.99 -5.0928125 27.99 -5.1875 29 C-5.96386226 31.86656834 -6.79917039 33.34069175 -8.4375 35.75 C-11.22314058 39.96871579 -12.23184986 44.04715132 -13 49 C-13.66 49 -14.32 49 -15 49 C-15.185625 49.9590625 -15.185625 49.9590625 -15.375 50.9375 C-15.58125 51.618125 -15.7875 52.29875 -16 53 C-16.99 53.495 -16.99 53.495 -18 54 C-18.66 54.99 -19.32 55.98 -20 57 C-20.66 56.67 -21.32 56.34 -22 56 C-20.48647475 51.85526933 -18.42586088 48.15853508 -16.1875 44.375 C-8.09646096 30.36475594 -3.16939771 15.84698855 0 0 Z " fill="#C2657B" transform="translate(172,298)"/>
<path d="M0 0 C1.98 0 3.96 0 6 0 C4.72693448 2.54613104 3.73024856 2.7654209 1.16015625 3.91796875 C0.35263916 4.28220947 -0.45487793 4.6464502 -1.28686523 5.02172852 C-2.16157471 5.40643311 -3.03628418 5.7911377 -3.9375 6.1875 C-4.82961182 6.58316162 -5.72172363 6.97882324 -6.64086914 7.38647461 C-12.69814074 10.04799494 -18.78958093 12.61757466 -24.9375 15.0625 C-25.67540771 15.36115967 -26.41331543 15.65981934 -27.17358398 15.9675293 C-30.89866364 17.41528278 -33.98787332 18.36902144 -38 18 C-35.66785852 16.79371992 -33.50357861 15.8345262 -31 15 C-30.34 14.01 -29.68 13.02 -29 12 C-24.9136039 10.53506555 -21.33982267 9.73698044 -17 10 C-17 9.34 -17 8.68 -17 8 C-15.081875 7.87625 -15.081875 7.87625 -13.125 7.75 C-10.92819526 7.53953057 -10.92819526 7.53953057 -9 7 C-8.30062468 5.68352881 -7.63270867 4.34977849 -7 3 C-3.375 2.25 -3.375 2.25 0 2 C0 1.34 0 0.68 0 0 Z " fill="#D48D9E" transform="translate(200,359)"/>
<path d="M0 0 C0.61328125 1.88671875 0.61328125 1.88671875 1 4 C-1 6 -1 6 -3 8 C-3.70491267 10.32206525 -4.37212429 12.65593068 -5 15 C-5.96873032 16.35622245 -6.96434215 17.69417053 -8 19 C-8.93741029 21.94904344 -9.14730054 24.68511439 -9.20532227 27.76855469 C-9.22526749 28.70922791 -9.24521271 29.64990112 -9.26576233 30.61907959 C-9.29083107 32.13021332 -9.29083107 32.13021332 -9.31640625 33.671875 C-9.33718735 34.70942932 -9.35796844 35.74698364 -9.37937927 36.815979 C-9.44471408 40.12725258 -9.50368517 43.43860482 -9.5625 46.75 C-9.60570049 48.99610185 -9.64931527 51.24219578 -9.69335938 53.48828125 C-9.80037903 58.99210457 -9.90217522 64.49600598 -10 70 C-10.33 70 -10.66 70 -11 70 C-11.12795999 63.40231305 -11.21483143 56.80495206 -11.2746582 50.20629883 C-11.2996279 47.96691938 -11.33361592 45.72761995 -11.37719727 43.48852539 C-11.70221011 26.34696568 -10.60456733 14.10298129 0 0 Z " fill="#FECBD8" transform="translate(355,32)"/>
<path d="M0 0 C0.33 0.66 0.66 1.32 1 2 C-5.20010845 9.91470634 -11.77754063 17.02053926 -19 24 C-19.66 23.67 -20.32 23.34 -21 23 C-20.34 21.02 -19.68 19.04 -19 17 C-18.01 17 -17.02 17 -16 17 C-16 16.34 -16 15.68 -16 15 C-14.68 14.67 -13.36 14.34 -12 14 C-12.33 12.35 -12.66 10.7 -13 9 C-11.35 9.33 -9.7 9.66 -8 10 C-7.34 8.68 -6.68 7.36 -6 6 C-6.66 5.67 -7.32 5.34 -8 5 C-7.34 4.34 -6.68 3.68 -6 3 C-5.34 3.33 -4.68 3.66 -4 4 C-3.67 3.01 -3.34 2.02 -3 1 C-2.67 1.66 -2.34 2.32 -2 3 C-1.34 2.01 -0.68 1.02 0 0 Z " fill="#D37B90" transform="translate(255,316)"/>
<path d="M0 0 C0.64453125 1.765625 0.64453125 1.765625 1 4 C0.07421875 5.921875 0.07421875 5.921875 -1.3125 7.75 C-1.98732422 8.67039062 -1.98732422 8.67039062 -2.67578125 9.609375 C-3.11277344 10.06828125 -3.54976563 10.5271875 -4 11 C-4.66 11 -5.32 11 -6 11 C-6.33 12.98 -6.66 14.96 -7 17 C-7.99 17 -8.98 17 -10 17 C-10.103125 17.928125 -10.20625 18.85625 -10.3125 19.8125 C-11.03751231 23.17392071 -11.29414873 24.04059046 -14 26 C-15.97620986 27.04622875 -17.9737129 28.05439935 -20 29 C-18.40570945 25.42339051 -16.21691682 22.57897782 -13.8125 19.5 C-9.845079 14.29755923 -6.56089444 9.04361611 -3.41015625 3.30078125 C-2 1 -2 1 0 0 Z " fill="#D08597" transform="translate(494,335)"/>
<path d="M0 0 C0.99 0.33 1.98 0.66 3 1 C3 2.65 3 4.3 3 6 C2.67 6 2.34 6 2 6 C1.80664062 7.04800781 1.61328125 8.09601563 1.4140625 9.17578125 C1.15140066 10.55475593 0.88836 11.93365849 0.625 13.3125 C0.49867188 14.00279297 0.37234375 14.69308594 0.2421875 15.40429688 C-0.42114318 18.83703314 -1.03497639 21.05246458 -3 24 C-3.66 24 -4.32 24 -5 24 C-5.66 26.64 -6.32 29.28 -7 32 C-8.09034833 27.63860667 -7.47314432 26.24467837 -5.83691406 22.22949219 C-4.4229219 18.46269626 -3.68489584 14.55785421 -2.875 10.625 C-1.11570248 2.23140496 -1.11570248 2.23140496 0 0 Z " fill="#CF7B90" transform="translate(506,292)"/>
<path d="M0 0 C0 0.66 0 1.32 0 2 C-2.31 2 -4.62 2 -7 2 C-7.309375 2.928125 -7.309375 2.928125 -7.625 3.875 C-9.54249243 6.83839739 -11.70117732 7.01737197 -15 8 C-15.33 8.66 -15.66 9.32 -16 10 C-17.64556566 11.03435556 -19.3170608 12.02763513 -21 13 C-23.00580329 14.32458708 -25.00715862 15.6559907 -27 17 C-27 16.01 -27 15.02 -27 14 C-26.01 13.67 -25.02 13.34 -24 13 C-23.74089844 12.40574219 -23.48179687 11.81148437 -23.21484375 11.19921875 C-21.44412421 7.99370395 -18.63762422 6.60380187 -15.5625 4.8125 C-14.97662109 4.45736328 -14.39074219 4.10222656 -13.78710938 3.73632812 C-8.93663966 0.83485532 -5.63334841 -0.12518552 0 0 Z " fill="#D48FA0" transform="translate(384,15)"/>
<path d="M0 0 C-5.38638375 3.09218326 -10.8563092 6.02685137 -16.375 8.875 C-16.98166504 9.19734619 -17.58833008 9.51969238 -18.21337891 9.85180664 C-19.77163715 10.645739 -21.38407822 11.33119947 -23 12 C-23.99 11.67 -24.98 11.34 -26 11 C-24.6875 9.5 -24.6875 9.5 -23 8 C-22.01 8 -21.02 8 -20 8 C-20 7.34 -20 6.68 -20 6 C-12.57142857 2.71428571 -12.57142857 2.71428571 -9 2 C-9 1.34 -9 0.68 -9 0 C-2.25 -1.125 -2.25 -1.125 0 0 Z " fill="#D08294" transform="translate(543,357)"/>
<path d="M0 0 C5.15252612 1.31898498 8.45504797 3.72255166 12.25 7.3125 C12.77851562 7.78623047 13.30703125 8.25996094 13.8515625 8.74804688 C16.91115281 11.58632164 18.80097117 13.98617787 20 18 C14.125 15.25 14.125 15.25 13 13 C12.01 12.67 11.02 12.34 10 12 C10 11.01 10 10.02 10 9 C9.01 8.67 8.02 8.34 7 8 C7.33 7.34 7.66 6.68 8 6 C6.8553125 5.814375 6.8553125 5.814375 5.6875 5.625 C3 5 3 5 0 3 C0 2.01 0 1.02 0 0 Z " fill="#D18698" transform="translate(578,18)"/>
<path d="M0 0 C0.97461174 2.58124443 1.13732128 3.6645189 0.07421875 6.26171875 C-0.61220703 7.46248047 -0.61220703 7.46248047 -1.3125 8.6875 C-3.8608528 13.45150399 -5.05858704 17.69385421 -6 23 C-6.66 23 -7.32 23 -8 23 C-8.12375 23.639375 -8.2475 24.27875 -8.375 24.9375 C-8.58125 25.618125 -8.7875 26.29875 -9 27 C-9.66 27.33 -10.32 27.66 -11 28 C-11.66 28.99 -12.32 29.98 -13 31 C-13.66 30.67 -14.32 30.34 -15 30 C-13.48661173 25.85564442 -11.42774536 22.15724602 -9.1875 18.375 C-5.71212862 12.41654224 -2.69768588 6.35512539 0 0 Z " fill="#DC99AA" transform="translate(165,324)"/>
<path d="M0 0 C1.65 0 3.3 0 5 0 C5 0.99 5 1.98 5 3 C1.24960933 4.29147472 -2.50406093 5.57287073 -6.26098633 6.84521484 C-8.16341566 7.49181419 -10.06317587 8.14624942 -11.96289062 8.80078125 C-13.16494141 9.20683594 -14.36699219 9.61289062 -15.60546875 10.03125 C-16.71043701 10.40830078 -17.81540527 10.78535156 -18.95385742 11.17382812 C-21.80831592 11.94801163 -24.06455605 12.17197068 -27 12 C-26.67 11.01 -26.34 10.02 -26 9 C-25.43152344 8.95101563 -24.86304688 8.90203125 -24.27734375 8.8515625 C-19.29925561 8.36954395 -14.72437909 7.67321759 -10 6 C-9.67 5.34 -9.34 4.68 -9 4 C-7.02 4 -5.04 4 -3 4 C-3 3.34 -3 2.68 -3 2 C-2.01 2 -1.02 2 0 2 C0 1.34 0 0.68 0 0 Z " fill="#ECBDC9" transform="translate(508,369)"/>
<path d="M0 0 C-4.32683705 1.3551461 -8.66064996 2.68547377 -13 4 C-14.51787109 4.46212891 -14.51787109 4.46212891 -16.06640625 4.93359375 C-21.22255815 6.43239173 -25.62877935 7.35808138 -31 7 C-31.33 6.34 -31.66 5.68 -32 5 C-29.03 5 -26.06 5 -23 5 C-23 4.34 -23 3.68 -23 3 C-4.36602452 -1.45534151 -4.36602452 -1.45534151 0 0 Z " fill="#D38B9B" transform="translate(162,378)"/>
<path d="M0 0 C-3.67416528 4.0081803 -7.14346504 6.52591615 -12 9 C-12.66 9 -13.32 9 -14 9 C-14 8.01 -14 7.02 -14 6 C-13.01 6 -12.02 6 -11 6 C-11 5.01 -11 4.02 -11 3 C-11.66 2.67 -12.32 2.34 -13 2 C-8.17638048 -0.49497561 -5.39223163 -1.07844633 0 0 Z " fill="#B8324F" transform="translate(557,347)"/>
<path d="M0 0 C0.66 1.32 1.32 2.64 2 4 C2.99 4 3.98 4 5 4 C5 4.66 5 5.32 5 6 C5.99 5.67 6.98 5.34 8 5 C8.33 7.64 8.66 10.28 9 13 C9.66 13 10.32 13 11 13 C11.66 14.98 12.32 16.96 13 19 C11.0625 18.25 11.0625 18.25 9 17 C8.63837971 15.67405895 8.30271961 14.34061543 8 13 C7.01 12.67 6.02 12.34 5 12 C3.61328125 10.0390625 3.61328125 10.0390625 2.3125 7.625 C1.87550781 6.83351562 1.43851562 6.04203125 0.98828125 5.2265625 C0 3 0 3 0 0 Z " fill="#D38597" transform="translate(348,222)"/>
<path d="M0 0 C0.66 0.33 1.32 0.66 2 1 C1.360625 1.9075 0.72125 2.815 0.0625 3.75 C-1.61428953 6.39221381 -2.53689998 7.9898499 -3 11 C-4.1446875 11.2165625 -4.1446875 11.2165625 -5.3125 11.4375 C-8.08172908 11.9632594 -8.08172908 11.9632594 -11 13 C-11 13.99 -11 14.98 -11 16 C-11.99 16.33 -12.98 16.66 -14 17 C-12.63312778 13.01328937 -10.84804907 10.11505367 -8 7 C-7.34 7 -6.68 7 -6 7 C-5.67 6.01 -5.34 5.02 -5 4 C-3.37667033 2.61423077 -1.71275535 1.27358732 0 0 Z " fill="#CE798D" transform="translate(34,21)"/>
<path d="M0 0 C0.66 0.33 1.32 0.66 2 1 C1.67 1.66 1.34 2.32 1 3 C4.96 3 8.92 3 13 3 C6.68598198 7.20934535 -1.58854456 7.27967756 -9 7 C-9 6.34 -9 5.68 -9 5 C-7.54735962 4.1361871 -6.0876837 3.28419546 -4.625 2.4375 C-3.40683594 1.72400391 -3.40683594 1.72400391 -2.1640625 0.99609375 C-1.44992187 0.66738281 -0.73578125 0.33867187 0 0 Z " fill="#DDAEBA" transform="translate(450,382)"/>
<path d="M0 0 C0.66 0.33 1.32 0.66 2 1 C1.01 2.485 1.01 2.485 0 4 C3.3 4 6.6 4 10 4 C10 4.33 10 4.66 10 5 C3.56971459 6.32388229 -2.4294834 7.24794402 -9 7 C-9 6.34 -9 5.68 -9 5 C-7.54735962 4.1361871 -6.0876837 3.28419546 -4.625 2.4375 C-3.40683594 1.72400391 -3.40683594 1.72400391 -2.1640625 0.99609375 C-1.44992188 0.66738281 -0.73578125 0.33867187 0 0 Z " fill="#DDB1BD" transform="translate(118,382)"/>
<path d="M0 0 C1.98 0 3.96 0 6 0 C4.23136347 3.53727305 0.09521758 4.56296187 -3.375 6.1875 C-4.15617188 6.56841797 -4.93734375 6.94933594 -5.7421875 7.34179688 C-6.495 7.69693359 -7.2478125 8.05207031 -8.0234375 8.41796875 C-8.71356934 8.74563232 -9.40370117 9.0732959 -10.11474609 9.41088867 C-12 10 -12 10 -15 9 C-14.05125 8.7525 -13.1025 8.505 -12.125 8.25 C-8.88153636 7.37043899 -8.88153636 7.37043899 -8.0625 4.9375 C-7.711875 4.298125 -7.36125 3.65875 -7 3 C-3.375 2.25 -3.375 2.25 0 2 C0 1.34 0 0.68 0 0 Z " fill="#D998A8" transform="translate(200,359)"/>
<path d="M0 0 C0.33 0.99 0.66 1.98 1 3 C1.66 3 2.32 3 3 3 C3.07476563 3.56847656 3.14953125 4.13695312 3.2265625 4.72265625 C4.17595313 10.29799927 5.68635225 13.44969536 9.7578125 17.39453125 C11 19 11 19 11 23 C10.34 23 9.68 23 9 23 C3.96538072 16.28249963 0 8.48246195 0 0 Z " fill="#EBBAC7" transform="translate(13,212)"/>
<path d="M0 0 C0.33 0.99 0.66 1.98 1 3 C1.66 3.33 2.32 3.66 3 4 C0.59518542 8.0080243 -1.65820712 8.61062628 -6 10 C-8.80804265 12.0115195 -8.80804265 12.0115195 -11 14 C-9.42219077 10.28954753 -7.09296752 7.70093616 -4.375 4.75 C-3.55773437 3.85796875 -2.74046875 2.9659375 -1.8984375 2.046875 C-1.27195313 1.37140625 -0.64546875 0.6959375 0 0 Z " fill="#D98D9F" transform="translate(149,354)"/>
<path d="M0 0 C-0.99 0 -1.98 0 -3 0 C-3 0.66 -3 1.32 -3 2 C-2.34 2.33 -1.68 2.66 -1 3 C-4.08888522 5.05925681 -4.70935927 5.2390374 -8.1875 5.125 C-10.0746875 5.063125 -10.0746875 5.063125 -12 5 C-11.375 3.125 -11.375 3.125 -10 1 C-6.34962875 -0.66647383 -3.81601142 -1.4676967 0 0 Z " fill="#B2314F" transform="translate(130,381)"/>
<path d="M0 0 C0.75 1.75 0.75 1.75 1 4 C-0.33333333 5.33333333 -1.66666667 6.66666667 -3 8 C-3.69356423 10.32548007 -4.36149212 12.65880445 -5 15 C-6.625 16.9375 -6.625 16.9375 -8 18 C-7.70942826 11.31684998 -4.79299918 4.79299918 0 0 Z " fill="#E1AAB7" transform="translate(355,32)"/>
<path d="M0 0 C-0.57575664 3.35250701 -1.59306263 4.93818629 -4.0625 7.25 C-4.88427734 8.03117187 -4.88427734 8.03117187 -5.72265625 8.828125 C-6.14417969 9.21484375 -6.56570312 9.6015625 -7 10 C-7.66 9.67 -8.32 9.34 -9 9 C-8.34 7.02 -7.68 5.04 -7 3 C-6.01 3 -5.02 3 -4 3 C-4 2.34 -4 1.68 -4 1 C-2 0 -2 0 0 0 Z " fill="#CB7589" transform="translate(243,330)"/>
<path d="M0 0 C0 3 0 3 -2.625 5.91796875 C-3.74249406 7.01550756 -4.86785643 8.10507895 -6 9.1875 C-6.57234375 9.74630859 -7.1446875 10.30511719 -7.734375 10.88085938 C-9.14962788 12.26073093 -10.57397155 13.63126734 -12 15 C-12.66 14.67 -13.32 14.34 -14 14 C-13.525625 13.566875 -13.05125 13.13375 -12.5625 12.6875 C-10.76313043 10.97690387 -10.76313043 10.97690387 -10 8 C-9.01 8 -8.02 8 -7 8 C-7 6.68 -7 5.36 -7 4 C-5.824375 3.566875 -5.824375 3.566875 -4.625 3.125 C-1.90328368 2.15087746 -1.90328368 2.15087746 0 0 Z " fill="#DA99AB" transform="translate(580,325)"/>
<path d="M0 0 C0.66 0.33 1.32 0.66 2 1 C2 1.99 2 2.98 2 4 C4.31 4.66 6.62 5.32 9 6 C9 6.99 9 7.98 9 9 C5.83548038 8.36567062 3.48312221 7.26817072 0.75 5.5625 C0.04359375 5.13066406 -0.6628125 4.69882813 -1.390625 4.25390625 C-1.92171875 3.84011719 -2.4528125 3.42632812 -3 3 C-3 2.34 -3 1.68 -3 1 C-2.01 0.67 -1.02 0.34 0 0 Z " fill="#CD8093" transform="translate(35,242)"/>
<path d="M0 0 C0.33 1.32 0.66 2.64 1 4 C2.051875 3.814375 2.051875 3.814375 3.125 3.625 C7.39184185 4.18154459 9.27060946 6.84853876 12 10 C11.67 10.66 11.34 11.32 11 12 C9.02 10.35 7.04 8.7 5 7 C5 7.66 5 8.32 5 9 C2.53199953 7.84826645 0.95216435 6.95216435 -1 5 C-0.625 2.375 -0.625 2.375 0 0 Z " fill="#B1304C" transform="translate(251,22)"/>
<path d="M0 0 C1.32 0 2.64 0 4 0 C3.36934243 3.21852831 2.21979305 5.50801069 0.4375 8.25 C-0.01753906 8.95640625 -0.47257812 9.6628125 -0.94140625 10.390625 C-1.29074219 10.92171875 -1.64007813 11.4528125 -2 12 C-2.66 11.34 -3.32 10.68 -4 10 C-4 9.01 -4 8.02 -4 7 C-3.01 7 -2.02 7 -1 7 C-0.67 4.69 -0.34 2.38 0 0 Z " fill="#D17F92" transform="translate(260,303)"/>
<path d="M0 0 C0 0.66 0 1.32 0 2 C-2.31 2 -4.62 2 -7 2 C-7.268125 2.639375 -7.53625 3.27875 -7.8125 3.9375 C-9 6 -9 6 -12 7 C-12.66 6.67 -13.32 6.34 -14 6 C-13 3 -13 3 -9.8125 1.3125 C-6.4652075 -0.01535157 -3.61508773 -0.26451861 0 0 Z " fill="#C76980" transform="translate(384,15)"/>
<path d="M0 0 C1.65 0 3.3 0 5 0 C5 0.99 5 1.98 5 3 C-1.93 4.485 -1.93 4.485 -9 6 C-9 5.34 -9 4.68 -9 4 C-7.02 4 -5.04 4 -3 4 C-3 3.34 -3 2.68 -3 2 C-2.01 2 -1.02 2 0 2 C0 1.34 0 0.68 0 0 Z " fill="#CB7B8D" transform="translate(508,369)"/>
<path d="M0 0 C1.38121182 4.14363547 0.02904675 5.73489421 -1.8125 9.625 C-2.35519531 10.79289062 -2.89789062 11.96078125 -3.45703125 13.1640625 C-5 16 -5 16 -7 17 C-6.61960997 11.2941496 -6.40018114 8.86682585 -2 5 C-0.74563813 2.36777038 -0.74563813 2.36777038 0 0 Z " fill="#E4ADBA" transform="translate(600,291)"/>
<path d="M0 0 C0.99 0.33 1.98 0.66 3 1 C3 2.65 3 4.3 3 6 C2.67 6 2.34 6 2 6 C1.67 8.97 1.34 11.94 1 15 C-1 13 -1 13 -1.23046875 10.9765625 C-1.21628906 10.20054688 -1.20210938 9.42453125 -1.1875 8.625 C-1.18105469 7.85414062 -1.17460937 7.08328125 -1.16796875 6.2890625 C-1.00595151 4.08110656 -0.60634894 2.12464668 0 0 Z " fill="#B3405C" transform="translate(346,51)"/>
<path d="M0 0 C4.13813705 0.53176995 6.27082318 2.77932166 9.25 5.5625 C10.14203125 6.38878906 11.0340625 7.21507812 11.953125 8.06640625 C12.62859375 8.70449219 13.3040625 9.34257812 14 10 C13.67 10.66 13.34 11.32 13 12 C12.278125 11.195625 11.55625 10.39125 10.8125 9.5625 C7.97484311 6.97707928 6.72833853 6.31957187 3 6 C2.814375 5.071875 2.814375 5.071875 2.625 4.125 C2.12802644 1.80879168 2.12802644 1.80879168 0 0 Z " fill="#E5AABA" transform="translate(249,20)"/>
<path d="M0 0 C0.66 0.33 1.32 0.66 2 1 C-2.93654267 8.5273523 -2.93654267 8.5273523 -7.375 10.5 C-8.24125 10.665 -9.1075 10.83 -10 11 C-9.34 10.01 -8.68 9.02 -8 8 C-7.34 8 -6.68 8 -6 8 C-5.34 6.68 -4.68 5.36 -4 4 C-3.34 4 -2.68 4 -2 4 C-1.34 2.68 -0.68 1.36 0 0 Z " fill="#DCA1B0" transform="translate(472,364)"/>
<path d="M0 0 C0.65234375 1.765625 0.65234375 1.765625 1 4 C0.00390625 5.921875 0.00390625 5.921875 -1.4375 7.75 C-1.91058594 8.36359375 -2.38367188 8.9771875 -2.87109375 9.609375 C-3.24363281 10.06828125 -3.61617188 10.5271875 -4 11 C-4.66 10.67 -5.32 10.34 -6 10 C-5.57507874 8.70414084 -5.13454118 7.4133956 -4.6875 6.125 C-4.44386719 5.40570313 -4.20023437 4.68640625 -3.94921875 3.9453125 C-3 2 -3 2 0 0 Z " fill="#C3677E" transform="translate(494,335)"/>
<path d="M0 0 C2.475 0.99 2.475 0.99 5 2 C2.34345343 5.73884332 0.41889613 7.64978174 -4 9 C-3.34 8.01 -2.68 7.02 -2 6 C-1.34 6 -0.68 6 0 6 C-0.66 4.68 -1.32 3.36 -2 2 C-1.34 2 -0.68 2 0 2 C0 1.34 0 0.68 0 0 Z " fill="#D48296" transform="translate(229,338)"/>
<path d="M0 0 C5.66104589 0.49658297 9.87674471 1.54510684 15 4 C14.01 4.33 13.02 4.66 12 5 C11.34 4.67 10.68 4.34 10 4 C9.67 4.66 9.34 5.32 9 6 C6.5 4.625 6.5 4.625 4 3 C4 2.34 4 1.68 4 1 C2.68 0.67 1.36 0.34 0 0 Z " fill="#D78F9F" transform="translate(563,13)"/>
<path d="M0 0 C0.66 0.33 1.32 0.66 2 1 C1.01 1.66 0.02 2.32 -1 3 C-0.67 2.01 -0.34 1.02 0 0 Z M-4 3 C-3.01 3.33 -2.02 3.66 -1 4 C-1.33 4.99 -1.66 5.98 -2 7 C-2.99 7 -3.98 7 -5 7 C-6.68798827 8.43750191 -6.68798827 8.43750191 -8 10 C-8.66 9.67 -9.32 9.34 -10 9 C-8.02 7.02 -6.04 5.04 -4 3 Z " fill="#B1324F" transform="translate(481,358)"/>
<path d="M0 0 C1 2 1 2 0.375 5.5 C-1 9 -1 9 -3.625 10.4375 C-4.40875 10.623125 -5.1925 10.80875 -6 11 C-4.54955729 6.89041233 -2.48889248 3.56741255 0 0 Z " fill="#DB97A7" transform="translate(488,343)"/>
<path d="M0 0 C2.97595467 2.55081829 4.44002566 5.43434437 6 9 C6 9.99 6 10.98 6 12 C5.01 12 4.02 12 3 12 C3 10.02 3 8.04 3 6 C2.34 6 1.68 6 1 6 C0.67 4.02 0.34 2.04 0 0 Z " fill="#DB9DAC" transform="translate(598,36)"/>
<path d="M0 0 C3 0 3 0 5.625 2.25 C7.76579221 4.72881204 8.64840943 5.83568489 9 9 C8.01 8.67 7.02 8.34 6 8 C6 7.01 6 6.02 6 5 C5.195625 4.731875 4.39125 4.46375 3.5625 4.1875 C2.716875 3.795625 1.87125 3.40375 1 3 C0.67 2.01 0.34 1.02 0 0 Z " fill="#D18697" transform="translate(260,32)"/>
<path d="M0 0 C1.98 0.66 3.96 1.32 6 2 C6 2.99 6 3.98 6 5 C4.02 5 2.04 5 0 5 C0 3.35 0 1.7 0 0 Z " fill="#C86C84" transform="translate(242,16)"/>
<path d="M0 0 C3.125 0.375 3.125 0.375 6 1 C4.35 2.65 2.7 4.3 1 6 C0.34 5.67 -0.32 5.34 -1 5 C-0.67 4.67 -0.34 4.34 0 4 C-0.66 3.34 -1.32 2.68 -2 2 C-1.34 1.34 -0.68 0.68 0 0 Z " fill="#D37890" transform="translate(551,346)"/>
<path d="M0 0 C1.45823212 -0.0270043 2.91660675 -0.04639787 4.375 -0.0625 C5.18710937 -0.07410156 5.99921875 -0.08570313 6.8359375 -0.09765625 C9 0 9 0 11 1 C11 1.66 11 2.32 11 3 C6.78121808 3.19622241 3.82989106 2.80230168 0 1 C0 0.67 0 0.34 0 0 Z " fill="#CD8092" transform="translate(44,251)"/>
<path d="M0 0 C1.98 0.66 3.96 1.32 6 2 C5.67 2.99 5.34 3.98 5 5 C5.99 5.33 6.98 5.66 8 6 C8 6.66 8 7.32 8 8 C4.63820226 6.55922954 2.40843732 4.75249979 0 2 C0 1.34 0 0.68 0 0 Z " fill="#D28198" transform="translate(24,235)"/>
<path d="M0 0 C-2.8125 2.0625 -2.8125 2.0625 -6 4 C-6.99 3.67 -7.98 3.34 -9 3 C-9 2.01 -9 1.02 -9 0 C-2.25 -1.125 -2.25 -1.125 0 0 Z " fill="#D88FA0" transform="translate(543,357)"/>
<path d="M0 0 C3 1 3 1 5 4 C5 5.32 5 6.64 5 8 C4.34 8 3.68 8 3 8 C0.95830515 5.09451118 0 3.59857954 0 0 Z " fill="#D0899A" transform="translate(19,227)"/>
<path d="M0 0 C0.33 0 0.66 0 1 0 C1.33292585 4.24480464 1.43885872 6.35542625 -1 9.9375 C-1.66 10.618125 -2.32 11.29875 -3 12 C-2.40075776 7.80530429 -1.42500059 3.99000166 0 0 Z " fill="#E4B1BF" transform="translate(169,312)"/>
<path d="M0 0 C0.103125 0.639375 0.20625 1.27875 0.3125 1.9375 C0.539375 2.618125 0.76625 3.29875 1 4 C1.99 4.33 2.98 4.66 4 5 C3.67 6.65 3.34 8.3 3 10 C-0.00617269 6.99382731 0.40414684 4.17618402 0 0 Z " fill="#AD374F" transform="translate(16,216)"/>
<path d="M0 0 C1.98 0 3.96 0 6 0 C6 0.66 6 1.32 6 2 C6.99 2.33 7.98 2.66 9 3 C6 4 6 4 2.8125 2.5625 C1.884375 2.046875 0.95625 1.53125 0 1 C0 0.67 0 0.34 0 0 Z " fill="#DFA3B2" transform="translate(372,249)"/>
<path d="M0 0 C0.66 0.33 1.32 0.66 2 1 C1.67 3.31 1.34 5.62 1 8 C0.34 8 -0.32 8 -1 8 C-0.67 5.36 -0.34 2.72 0 0 Z " fill="#C46A81" transform="translate(15,46)"/>
<path d="M0 0 C0.66 0.33 1.32 0.66 2 1 C-1.61328125 5.6875 -1.61328125 5.6875 -3 7 C-3.99 7 -4.98 7 -6 7 C-4.77065985 3.31197956 -3.06140622 2.27643027 0 0 Z " fill="#E2A7B7" transform="translate(34,21)"/>
<path d="M0 0 C1.32 0.66 2.64 1.32 4 2 C-0.75 5 -0.75 5 -3 5 C-3 4.01 -3 3.02 -3 2 C-2.01 2 -1.02 2 0 2 C0 1.34 0 0.68 0 0 Z " fill="#D68B9E" transform="translate(546,351)"/>
<path d="M0 0 C1.32 0.33 2.64 0.66 4 1 C2.02 2.98 0.04 4.96 -2 7 C-2.66 6.67 -3.32 6.34 -4 6 C-3.525625 5.566875 -3.05125 5.13375 -2.5625 4.6875 C-0.76313043 2.97690387 -0.76313043 2.97690387 0 0 Z " fill="#E7B9C7" transform="translate(570,333)"/>
<path d="M0 0 C0.75 1.75 0.75 1.75 1 4 C-0.9375 6.25 -0.9375 6.25 -3 8 C-2.74438677 5.6568787 -2.40729228 3.32156597 -2 1 C-1.34 0.67 -0.68 0.34 0 0 Z " fill="#C67083" transform="translate(350,42)"/>
</svg>
